<svg width="31" height="31" viewBox="0 0 31 31" fill="none" xmlns="http://www.w3.org/2000/svg">
<path d="M21.3118 30.875V18.9748H25.2973L25.8935 14.3486H21.3118V11.3966C21.3118 10.0572 21.6842 9.14329 23.6043 9.14329H26.0541V5.00571C24.8682 4.87988 23.6762 4.81886 22.4837 4.82292C18.9525 4.82292 16.5352 6.97883 16.5352 10.9388V14.3486H12.5412V18.9748H16.5352V30.875H1.83333C1.38026 30.875 0.945734 30.695 0.625359 30.3746C0.304985 30.0543 0.125 29.6197 0.125 29.1667V1.83333C0.125 1.38026 0.304985 0.945734 0.625359 0.625359C0.945734 0.304985 1.38026 0.125 1.83333 0.125H29.1667C29.6197 0.125 30.0543 0.304985 30.3746 0.625359C30.695 0.945734 30.875 1.38026 30.875 1.83333V29.1667C30.875 29.6197 30.695 30.0543 30.3746 30.3746C30.0543 30.695 29.6197 30.875 29.1667 30.875H21.3118Z" fill="white"/>
</svg>
