<svg width="135" height="40" viewBox="0 0 135 40" fill="none" xmlns="http://www.w3.org/2000/svg">
<g clip-path="url(#clip0_210_69)">
<path d="M130 0H5C2.23858 0 0 2.23858 0 5V35C0 37.7614 2.23858 40 5 40H130C132.761 40 135 37.7614 135 35V5C135 2.23858 132.761 0 130 0Z" fill="black"/>
<path d="M130 0.800014C131.114 0.8013 132.181 1.24424 132.968 2.03166C133.756 2.81908 134.199 3.88667 134.2 5.00021V35.0002C134.199 36.1137 133.756 37.1813 132.968 37.9687C132.181 38.7562 131.114 39.1991 130 39.2004H5C3.88645 39.1991 2.81888 38.7562 2.0315 37.9688C1.24412 37.1814 0.801231 36.1138 0.8 35.0002V5.00021C0.801212 3.88666 1.24409 2.81906 2.03148 2.03163C2.81886 1.24421 3.88644 0.801279 5 0.800014H130ZM130 0.000213623H5C3.67511 0.00409172 2.40559 0.532121 1.46875 1.46896C0.531908 2.40581 0.0038781 3.67532 0 5.00021L0 35.0002C0.0038781 36.3251 0.531908 37.5946 1.46875 38.5315C2.40559 39.4683 3.67511 39.9963 5 40.0002H130C131.325 39.9963 132.594 39.4683 133.531 38.5315C134.468 37.5946 134.996 36.3251 135 35.0002V5.00021C134.996 3.67532 134.468 2.40581 133.531 1.46896C132.594 0.532121 131.325 0.00409172 130 0.000213623Z" fill="#A6A6A6"/>
<path d="M47.4184 10.2433C47.4366 10.6103 47.3799 10.9771 47.2518 11.3214C47.1237 11.6657 46.9268 11.9804 46.6732 12.2462C46.389 12.541 46.0457 12.7724 45.6659 12.9254C45.2861 13.0784 44.8783 13.1494 44.4691 13.1339C44.0573 13.1376 43.649 13.0589 43.268 12.9025C42.8871 12.7461 42.5412 12.5152 42.2508 12.2232C41.9604 11.9313 41.7313 11.5842 41.5769 11.2024C41.4226 10.8206 41.3461 10.4119 41.352 10.0001C41.3462 9.58834 41.4227 9.17956 41.577 8.79778C41.7314 8.416 41.9605 8.06892 42.2509 7.77692C42.5413 7.48493 42.8871 7.25392 43.268 7.09745C43.649 6.94099 44.0573 6.86223 44.4691 6.86581C44.8925 6.86453 45.3116 6.95013 45.7006 7.11731C46.0619 7.26375 46.3834 7.49345 46.6391 7.78771L46.1117 8.31551C45.9107 8.07896 45.6581 7.89175 45.3733 7.76831C45.0885 7.64488 44.7791 7.58853 44.4691 7.60361C44.157 7.60199 43.8478 7.66338 43.56 7.78409C43.2722 7.9048 43.0118 8.08236 42.7942 8.30612C42.5767 8.52988 42.4065 8.79524 42.2939 9.08632C42.1814 9.3774 42.1287 9.6882 42.1391 10.0001C42.1317 10.4673 42.2631 10.9262 42.5168 11.3186C42.7705 11.711 43.135 12.0192 43.5641 12.2041C43.9932 12.3891 44.4676 12.4424 44.927 12.3574C45.3865 12.2724 45.8104 12.0529 46.1449 11.7267C46.4528 11.3949 46.6313 10.9636 46.6478 10.5113H44.4691V9.79061H47.3764C47.4039 9.93995 47.4179 10.0915 47.4184 10.2433Z" fill="white" stroke="white" stroke-width="0.2" stroke-miterlimit="10"/>
<path d="M52.0277 7.73739H49.2953V9.63969H51.7592V10.3605H49.2953V12.2628H52.0277V13.0001H48.5248V7.00009H52.0277V7.73739Z" fill="white" stroke="white" stroke-width="0.2" stroke-miterlimit="10"/>
<path d="M55.2787 13.0001H54.5072V7.73739H52.8314V7.00009H56.9545V7.73739H55.2787V13.0001Z" fill="white" stroke="white" stroke-width="0.2" stroke-miterlimit="10"/>
<path d="M59.9379 13.0001V7.00009H60.7084V13.0001H59.9379Z" fill="white" stroke="white" stroke-width="0.2" stroke-miterlimit="10"/>
<path d="M64.1284 13.0001H63.3569V7.73739H61.6812V7.00009H65.8042V7.73739H64.1284V13.0001Z" fill="white" stroke="white" stroke-width="0.2" stroke-miterlimit="10"/>
<path d="M73.6093 12.2247C73.0253 12.807 72.2343 13.1339 71.4096 13.1339C70.5849 13.1339 69.7939 12.807 69.2099 12.2247C68.921 11.9321 68.6939 11.5844 68.542 11.2022C68.3902 10.82 68.3168 10.4112 68.3261 10.0001C68.3168 9.589 68.3902 9.18021 68.542 8.79804C68.6939 8.41588 68.921 8.06814 69.2099 7.77551C69.4986 7.48678 69.8413 7.25781 70.2186 7.10171C70.5958 6.94562 71.0002 6.86545 71.4085 6.86582C71.8167 6.86618 72.2209 6.94706 72.5979 7.10382C72.9749 7.26059 73.3173 7.49017 73.6054 7.77941C73.8945 8.07127 74.1221 8.41823 74.2746 8.7997C74.4271 9.18117 74.5014 9.58938 74.4931 10.0001C74.5022 10.4112 74.4286 10.8199 74.2768 11.202C74.125 11.5842 73.898 11.9319 73.6093 12.2247ZM69.7792 11.7223C70.2117 12.1541 70.7979 12.3966 71.4091 12.3966C72.0203 12.3966 72.6065 12.1541 73.039 11.7223C73.2608 11.4952 73.4343 11.2255 73.5489 10.9295C73.6635 10.6335 73.717 10.3174 73.706 10.0001C73.717 9.68287 73.6635 9.3667 73.5489 9.07069C73.4343 8.77469 73.2608 8.505 73.039 8.27791C72.6065 7.84612 72.0203 7.6036 71.4091 7.6036C70.7979 7.6036 70.2117 7.84612 69.7792 8.27791C69.5577 8.50517 69.3845 8.77492 69.2701 9.0709C69.1556 9.36688 69.1022 9.68296 69.1132 10.0001C69.1022 10.3173 69.1556 10.6334 69.2701 10.9293C69.3845 11.2253 69.5577 11.4951 69.7792 11.7223Z" fill="white" stroke="white" stroke-width="0.2" stroke-miterlimit="10"/>
<path d="M75.5751 13.0001V7.00009H76.5136L79.4296 11.6676H79.4628L79.4296 10.5113V7.00009H80.2011V13.0001H79.3964L76.3456 8.10649H76.3124L76.3456 9.26279V13.0001H75.5751Z" fill="white" stroke="white" stroke-width="0.2" stroke-miterlimit="10"/>
<path d="M68.1357 21.7517C67.2952 21.7549 66.4745 22.007 65.7772 22.4763C65.0799 22.9456 64.5373 23.611 64.2178 24.3884C63.8984 25.1659 63.8165 26.0205 63.9824 26.8445C64.1483 27.6685 64.5547 28.4248 65.1501 29.018C65.7456 29.6112 66.5035 30.0147 67.3281 30.1775C68.1527 30.3403 69.007 30.2551 69.7832 29.9327C70.5595 29.6103 71.2228 29.0652 71.6894 28.3661C72.156 27.667 72.4051 26.8453 72.405 26.0048C72.4133 25.4426 72.3084 24.8845 72.0966 24.3637C71.8847 23.8429 71.5703 23.37 71.172 22.9732C70.7737 22.5764 70.2996 22.2638 69.778 22.0539C69.2564 21.8441 68.6979 21.7413 68.1357 21.7517ZM68.1357 28.5825C67.6181 28.6194 67.1014 28.4996 66.6528 28.2387C66.2042 27.9778 65.8445 27.5879 65.6207 27.1198C65.3968 26.6516 65.319 26.1269 65.3975 25.6139C65.476 25.101 65.7071 24.6235 66.0608 24.2438C66.4144 23.864 66.8742 23.5995 67.3803 23.4847C67.8864 23.3699 68.4153 23.4101 68.8982 23.6001C69.3811 23.7902 69.7956 24.1212 70.0877 24.5501C70.3799 24.979 70.5361 25.4859 70.5361 26.0048C70.5519 26.3326 70.5018 26.6603 70.389 26.9685C70.2761 27.2767 70.1028 27.5593 69.8791 27.7994C69.6554 28.0396 69.386 28.2327 69.0866 28.3671C68.7872 28.5016 68.4639 28.5749 68.1357 28.5825ZM58.8223 21.7517C57.9818 21.7549 57.1611 22.007 56.4638 22.4763C55.7665 22.9455 55.2238 23.6109 54.9044 24.3884C54.5849 25.1658 54.503 26.0205 54.6689 26.8444C54.8348 27.6684 55.2411 28.4248 55.8366 29.018C56.4321 29.6112 57.1899 30.0147 58.0145 30.1775C58.8391 30.3403 59.6935 30.2551 60.4697 29.9327C61.246 29.6103 61.9093 29.0652 62.3759 28.3661C62.8425 27.667 63.0916 26.8453 63.0915 26.0048C63.0998 25.4426 62.9949 24.8845 62.7831 24.3637C62.5713 23.8429 62.2568 23.3701 61.8585 22.9733C61.4602 22.5765 60.9862 22.2638 60.4646 22.054C59.943 21.8441 59.3845 21.7413 58.8223 21.7517ZM58.8223 28.5825C58.3047 28.6194 57.788 28.4996 57.3394 28.2387C56.8908 27.9778 56.5311 27.5879 56.3073 27.1198C56.0834 26.6516 56.0056 26.1269 56.0841 25.6139C56.1626 25.101 56.3937 24.6235 56.7474 24.2438C57.101 23.864 57.5608 23.5995 58.0669 23.4847C58.573 23.3699 59.1019 23.4101 59.5848 23.6001C60.0677 23.7902 60.4822 24.1212 60.7743 24.5501C61.0665 24.979 61.2227 25.4859 61.2227 26.0048C61.2385 26.3326 61.1884 26.6603 61.0756 26.9685C60.9628 27.2767 60.7894 27.5593 60.5657 27.7995C60.342 28.0397 60.0726 28.2327 59.7732 28.3672C59.4738 28.5016 59.1505 28.5749 58.8223 28.5825ZM47.7435 23.0567V24.861H52.0612C51.9989 25.7073 51.6526 26.5078 51.0784 27.1326C50.6458 27.5736 50.1254 27.9191 49.551 28.1466C48.9766 28.3741 48.3609 28.4787 47.7435 28.4536C46.4815 28.4365 45.277 27.9232 44.3906 27.0247C43.5042 26.1262 43.0072 24.9148 43.0072 23.6527C43.0072 22.3906 43.5042 21.1792 44.3906 20.2807C45.277 19.3822 46.4815 18.8689 47.7435 18.8518C48.9558 18.836 50.1253 19.2991 50.9979 20.1406L52.2706 18.8679C51.6752 18.2784 50.9681 17.8137 50.1907 17.5011C49.4133 17.1885 48.5813 17.0343 47.7435 17.0474C46.868 17.0347 45.9987 17.1961 45.1862 17.5223C44.3736 17.8485 43.634 18.3331 43.0104 18.9477C42.3867 19.5623 41.8915 20.2948 41.5535 21.1025C41.2155 21.9102 41.0414 22.7771 41.0414 23.6527C41.0414 24.5283 41.2155 25.3952 41.5535 26.2029C41.8915 27.0106 42.3867 27.7431 43.0104 28.3577C43.634 28.9724 44.3736 29.4569 45.1862 29.7831C45.9987 30.1093 46.868 30.2708 47.7435 30.258C48.599 30.2935 49.4522 30.1466 50.2466 29.8272C51.041 29.5078 51.7584 29.0231 52.3511 28.4053C53.4036 27.2566 53.9645 25.7415 53.9139 24.1844C53.9181 23.8063 53.8857 23.4286 53.8171 23.0567H47.7435ZM93.0518 24.4582C92.7962 23.6878 92.3097 23.0148 91.6583 22.5306C91.0069 22.0464 90.2222 21.7744 89.4108 21.7517C88.8644 21.7551 88.3243 21.8693 87.8232 22.0873C87.3221 22.3053 86.8704 22.6227 86.4955 23.0203C86.1205 23.4178 85.8301 23.8873 85.6417 24.4002C85.4533 24.9132 85.3709 25.4591 85.3994 26.0048C85.3871 26.564 85.4876 27.1199 85.695 27.6394C85.9024 28.1588 86.2123 28.6312 86.6063 29.0282C87.0002 29.4252 87.4702 29.7387 87.9881 29.95C88.5059 30.1613 89.0611 30.2661 89.6203 30.258C90.321 30.2619 91.0116 30.0917 91.6302 29.7627C92.2489 29.4337 92.7761 28.9562 93.1645 28.3731L91.7146 27.4065C91.4974 27.7672 91.1902 28.0653 90.823 28.2715C90.4559 28.4776 90.0414 28.5848 89.6203 28.5825C89.187 28.5991 88.7588 28.4851 88.391 28.2553C88.0233 28.0254 87.7331 27.6904 87.5581 27.2937L93.2452 24.9416L93.0518 24.4582ZM87.2521 25.876C87.2321 25.5664 87.274 25.256 87.3754 24.9628C87.4768 24.6697 87.6357 24.3997 87.8427 24.1687C88.0497 23.9376 88.3007 23.7502 88.581 23.6174C88.8614 23.4845 89.1654 23.4089 89.4753 23.395C89.7979 23.3738 90.1197 23.448 90.4005 23.6084C90.6813 23.7689 90.9086 24.0084 91.0541 24.2972L87.2521 25.876ZM82.6283 30.0002H84.4971V17.4986H82.6283V30.0002ZM79.5673 22.7022H79.5029C79.2188 22.3935 78.8721 22.149 78.4859 21.9851C78.0997 21.8212 77.683 21.7416 77.2635 21.7517C76.1669 21.7984 75.1306 22.2669 74.3711 23.0594C73.6116 23.8519 73.1876 24.9072 73.1876 26.0049C73.1876 27.1025 73.6116 28.1578 74.3711 28.9503C75.1306 29.7428 76.1669 30.2113 77.2635 30.258C77.6846 30.2692 78.1031 30.1885 78.4898 30.0216C78.8766 29.8547 79.2223 29.6055 79.5029 29.2914H79.5673V29.9036C79.5673 31.5308 78.6974 32.4007 77.2957 32.4007C76.8286 32.3895 76.3754 32.2395 75.9938 31.9698C75.6122 31.7001 75.3196 31.3229 75.1531 30.8863L73.5259 31.563C73.8326 32.3097 74.3553 32.9478 75.0269 33.3955C75.6985 33.8433 76.4886 34.0803 77.2957 34.0762C79.4868 34.0762 81.3395 32.7874 81.3395 29.6458V22.0094H79.5673V22.7022ZM77.4247 28.5825C76.7788 28.5277 76.177 28.2324 75.7384 27.7551C75.2998 27.2777 75.0564 26.6531 75.0564 26.0049C75.0564 25.3566 75.2998 24.732 75.7384 24.2546C76.177 23.7773 76.7788 23.482 77.4247 23.4272C77.7461 23.4429 78.061 23.5231 78.3507 23.6631C78.6404 23.8031 78.8989 24 79.1109 24.242C79.3229 24.4841 79.4839 24.7663 79.5845 25.0719C79.6851 25.3776 79.7231 25.7003 79.6962 26.0209C79.7214 26.3395 79.682 26.66 79.5804 26.963C79.4788 27.2661 79.3172 27.5455 79.1051 27.7847C78.8931 28.0238 78.635 28.2177 78.3462 28.3548C78.0575 28.4919 77.7441 28.5693 77.4247 28.5825ZM101.806 17.4988H97.3345V30.0002H99.2002V25.2638H101.806C102.334 25.2927 102.862 25.2138 103.358 25.0317C103.854 24.8497 104.308 24.5684 104.692 24.205C105.076 23.8417 105.381 23.4038 105.59 22.9184C105.799 22.4329 105.907 21.9099 105.907 21.3813C105.907 20.8528 105.799 20.3298 105.59 19.8443C105.381 19.3588 105.076 18.921 104.692 18.5576C104.308 18.1942 103.854 17.9129 103.358 17.7309C102.862 17.5488 102.334 17.4699 101.806 17.4988ZM101.854 23.524H99.2002V19.2387H101.854C102.139 19.2328 102.422 19.2839 102.688 19.3889C102.953 19.4939 103.194 19.6508 103.398 19.8503C103.602 20.0499 103.764 20.2881 103.874 20.551C103.985 20.8139 104.041 21.0962 104.041 21.3814C104.041 21.6665 103.985 21.9488 103.874 22.2117C103.764 22.4746 103.602 22.7128 103.398 22.9124C103.194 23.1119 102.953 23.2688 102.688 23.3738C102.422 23.4789 102.139 23.5299 101.854 23.524ZM113.386 21.7287C112.705 21.6889 112.027 21.8489 111.435 22.1889C110.844 22.5288 110.365 23.0341 110.056 23.6426L111.713 24.3342C111.877 24.0322 112.126 23.7846 112.429 23.6218C112.732 23.4589 113.075 23.3879 113.418 23.4174C113.891 23.3712 114.363 23.5145 114.731 23.816C115.099 24.1175 115.332 24.5525 115.38 25.0257V25.1544C114.781 24.8361 114.112 24.6704 113.434 24.6719C111.649 24.6719 109.831 25.653 109.831 27.4865C109.849 27.8729 109.943 28.2519 110.11 28.601C110.277 28.9501 110.512 29.2621 110.801 29.5186C111.091 29.7751 111.429 29.9709 111.795 30.0942C112.162 30.2176 112.55 30.266 112.935 30.2367C113.405 30.2644 113.874 30.1656 114.292 29.9506C114.711 29.7356 115.064 29.4123 115.316 29.0144H115.38V29.9794H117.181V25.1866C117.181 22.9671 115.525 21.7287 113.386 21.7287ZM113.16 28.5801C112.549 28.5801 111.697 28.2746 111.697 27.5186C111.697 26.5537 112.758 26.1837 113.675 26.1837C114.271 26.1678 114.859 26.3123 115.38 26.6019C115.311 27.1441 115.049 27.6432 114.641 28.0069C114.233 28.3705 113.707 28.5742 113.16 28.5801ZM123.743 22.0021L121.604 27.4221H121.54L119.32 22.0021H117.31L120.639 29.5773L118.741 33.7911H120.687L125.818 22.0021H123.743ZM106.936 30.0002H108.802V17.4988H106.936V30.0002Z" fill="white"/>
<path d="M10.4353 7.53812C10.1074 7.93019 9.94182 8.43281 9.97251 8.94302V31.0591C9.94173 31.5693 10.1073 32.072 10.4353 32.464L10.5093 32.5361L22.8983 20.1472V19.8549L10.5093 7.46552L10.4353 7.53812Z" fill="url(#paint0_linear_210_69)"/>
<path d="M27.0277 24.2786L22.8983 20.1472V19.8549L27.0287 15.7245L27.1218 15.7776L32.0146 18.5577C33.4122 19.3517 33.4122 20.6509 32.0146 21.4454L27.1218 24.2255L27.0277 24.2786Z" fill="url(#paint1_linear_210_69)"/>
<path d="M27.1218 24.225L22.8983 20.0011L10.4353 32.464C10.7201 32.7152 11.0837 32.8588 11.4633 32.87C11.8428 32.8812 12.2143 32.7593 12.5134 32.5254L27.1218 24.225Z" fill="url(#paint2_linear_210_69)"/>
<path d="M27.1218 15.7771L12.5134 7.47669C12.2143 7.24278 11.8428 7.12087 11.4633 7.13209C11.0837 7.1433 10.7201 7.28693 10.4353 7.53809L22.8983 20.0011L27.1218 15.7771Z" fill="url(#paint3_linear_210_69)"/>
<path opacity="0.2" d="M27.0287 24.132L12.5134 32.3793C12.2258 32.5982 11.8748 32.7177 11.5134 32.7196C11.152 32.7215 10.7997 32.6058 10.5098 32.39L10.4353 32.4645L10.5093 32.5366L10.5098 32.5361C10.7997 32.7521 11.1519 32.8678 11.5134 32.8659C11.8749 32.864 12.2259 32.7444 12.5134 32.5254L27.1218 24.225L27.0287 24.132Z" fill="black"/>
<path opacity="0.12" d="M10.4353 32.3184C10.1074 31.9263 9.94183 31.4237 9.97248 30.9135V31.0596C9.94181 31.5698 10.1074 32.0724 10.4353 32.4645L10.5098 32.39L10.4353 32.3184Z" fill="black"/>
<path opacity="0.12" d="M32.0146 21.2988L27.0287 24.132L27.1218 24.225L32.0146 21.4449C32.3024 21.32 32.5515 21.1202 32.7358 20.8663C32.9202 20.6125 33.0331 20.3138 33.0629 20.0015C33.001 20.2843 32.8741 20.5489 32.6921 20.7741C32.5101 20.9993 32.2781 21.1789 32.0146 21.2988Z" fill="black"/>
<path opacity="0.25" d="M12.5134 7.62331L32.0146 18.7033C32.2783 18.8232 32.5103 19.0029 32.6923 19.2282C32.8743 19.4535 33.0012 19.7181 33.0629 20.0011C33.0334 19.6887 32.9205 19.3898 32.7362 19.1359C32.5518 18.8819 32.3026 18.6821 32.0146 18.5572L12.5134 7.47721C11.1158 6.68311 9.97253 7.34271 9.97253 8.94351V9.08961C9.97253 7.48891 11.1158 6.82931 12.5134 7.62331Z" fill="white"/>
</g>
<defs>
<linearGradient id="paint0_linear_210_69" x1="21.7996" y1="8.70983" x2="5.01724" y2="25.4922" gradientUnits="userSpaceOnUse">
<stop stop-color="#00A0FF"/>
<stop offset="0.00657" stop-color="#00A1FF"/>
<stop offset="0.2601" stop-color="#00BEFF"/>
<stop offset="0.5122" stop-color="#00D2FF"/>
<stop offset="0.7604" stop-color="#00DFFF"/>
<stop offset="1" stop-color="#00E3FF"/>
</linearGradient>
<linearGradient id="paint1_linear_210_69" x1="33.8343" y1="20.0015" x2="9.6374" y2="20.0015" gradientUnits="userSpaceOnUse">
<stop stop-color="#FFE000"/>
<stop offset="0.4087" stop-color="#FFBD00"/>
<stop offset="0.7754" stop-color="#FFA500"/>
<stop offset="1" stop-color="#FF9C00"/>
</linearGradient>
<linearGradient id="paint2_linear_210_69" x1="24.8269" y1="22.2962" x2="2.06857" y2="45.0545" gradientUnits="userSpaceOnUse">
<stop stop-color="#FF3A44"/>
<stop offset="1" stop-color="#C31162"/>
</linearGradient>
<linearGradient id="paint3_linear_210_69" x1="7.29723" y1="0.176268" x2="17.4598" y2="10.3388" gradientUnits="userSpaceOnUse">
<stop stop-color="#32A071"/>
<stop offset="0.0685" stop-color="#2DA771"/>
<stop offset="0.4762" stop-color="#15CF74"/>
<stop offset="0.8009" stop-color="#06E775"/>
<stop offset="1" stop-color="#00F076"/>
</linearGradient>
<clipPath id="clip0_210_69">
<rect width="135" height="40.0002" fill="white"/>
</clipPath>
</defs>
</svg>
