<svg width="35" height="35" viewBox="0 0 35 35" fill="none" xmlns="http://www.w3.org/2000/svg">
<path d="M17.5 0.416626C22.1415 0.416626 22.7206 0.433709 24.5417 0.519126C26.3611 0.604543 27.5996 0.889834 28.6895 1.3135C29.817 1.74742 30.7669 2.33508 31.7167 3.28321C32.5854 4.1372 33.2575 5.17022 33.6864 6.31038C34.1084 7.39858 34.3954 8.63883 34.4808 10.4582C34.5611 12.2793 34.5833 12.8584 34.5833 17.5C34.5833 22.1415 34.5662 22.7206 34.4808 24.5417C34.3954 26.3611 34.1084 27.5996 33.6864 28.6895C33.2588 29.8303 32.5865 30.8636 31.7167 31.7167C30.8625 32.5851 29.8295 33.2572 28.6895 33.6864C27.6013 34.1084 26.3611 34.3954 24.5417 34.4808C22.7206 34.5611 22.1415 34.5833 17.5 34.5833C12.8584 34.5833 12.2793 34.5662 10.4582 34.4808C8.63883 34.3954 7.40029 34.1084 6.31038 33.6864C5.16977 33.2584 4.13657 32.5862 3.28321 31.7167C2.41436 30.8629 1.74218 29.8298 1.3135 28.6895C0.889834 27.6013 0.604543 26.3611 0.519126 24.5417C0.438834 22.7206 0.416626 22.1415 0.416626 17.5C0.416626 12.8584 0.433709 12.2793 0.519126 10.4582C0.604543 8.63713 0.889834 7.40029 1.3135 6.31038C1.74099 5.16952 2.41333 4.13622 3.28321 3.28321C4.13681 2.41406 5.16994 1.74183 6.31038 1.3135C7.40029 0.889834 8.63713 0.604543 10.4582 0.519126C12.2793 0.438834 12.8584 0.416626 17.5 0.416626ZM17.5 8.95829C15.2346 8.95829 13.062 9.85822 11.4601 11.4601C9.85822 13.062 8.95829 15.2346 8.95829 17.5C8.95829 19.7654 9.85822 21.938 11.4601 23.5398C13.062 25.1417 15.2346 26.0416 17.5 26.0416C19.7654 26.0416 21.938 25.1417 23.5398 23.5398C25.1417 21.938 26.0416 19.7654 26.0416 17.5C26.0416 15.2346 25.1417 13.062 23.5398 11.4601C21.938 9.85822 19.7654 8.95829 17.5 8.95829ZM28.6041 8.53121C28.6041 7.96486 28.3791 7.42171 27.9787 7.02124C27.5782 6.62077 27.0351 6.39579 26.4687 6.39579C25.9024 6.39579 25.3592 6.62077 24.9587 7.02124C24.5583 7.42171 24.3333 7.96486 24.3333 8.53121C24.3333 9.09756 24.5583 9.64071 24.9587 10.0412C25.3592 10.4416 25.9024 10.6666 26.4687 10.6666C27.0351 10.6666 27.5782 10.4416 27.9787 10.0412C28.3791 9.64071 28.6041 9.09756 28.6041 8.53121ZM17.5 12.375C18.8592 12.375 20.1628 12.9149 21.1239 13.876C22.085 14.8372 22.625 16.1407 22.625 17.5C22.625 18.8592 22.085 20.1628 21.1239 21.1239C20.1628 22.085 18.8592 22.625 17.5 22.625C16.1407 22.625 14.8372 22.085 13.876 21.1239C12.9149 20.1628 12.375 18.8592 12.375 17.5C12.375 16.1407 12.9149 14.8372 13.876 13.876C14.8372 12.9149 16.1407 12.375 17.5 12.375Z" fill="white"/>
</svg>
