<svg width="132" height="39" viewBox="0 0 132 39" fill="none" xmlns="http://www.w3.org/2000/svg">
<path d="M117.053 31.5523C120.186 31.5429 124.116 30.6767 127.217 29.6544L125.363 37.5573C121.473 38.324 117.105 38.9789 111.974 38.9996C95.9393 39.0692 89.0393 30.8975 89.0165 22.4168C88.9795 11.0627 101.282 -0.268546 121.098 0.00484982C125.302 0.0612928 129.305 0.808281 132 1.68015L129.379 11.0008H128.05C126.412 8.8754 123.923 7.26412 119.011 7.26412C108.969 7.26412 102.755 12.7165 102.774 19.9851C102.793 26.5641 108.514 31.5759 117.053 31.5523ZM59.1135 0.36432L58.4874 2.83458C58.4874 2.83458 62.2874 3.24697 61.1213 7.00537L52.4813 38.1593L69.7546 38.1884L70.4043 35.5105C70.4043 35.5105 67.1746 34.7344 68.0139 31.7805C68.0811 31.508 70.5494 22.533 70.5494 22.533L78.4686 22.52C82.4108 22.5406 83.715 24.5681 83.715 24.5681L86.011 15.317H72.6696L74.6539 8.05027L86.2445 8.03704C88.3775 8.03704 89.8711 9.45588 89.8711 10.4904H91.1829L93.7393 0.364498L59.1135 0.36432ZM46.0142 32.5975C44.9941 31.5113 36.103 17.7641 36.103 17.7641L52.3584 4.85983C55.0958 2.59258 57.0403 2.83317 57.0403 2.83317L57.6768 0.347036L37.4574 0.363085L36.8361 2.83335C38.2104 2.92542 40.1304 4.14406 38.5582 5.58812C38.363 5.76944 22.317 17.9241 22.317 17.9241L25.7695 5.51492C26.4838 3.11803 29.0789 2.83335 29.0789 2.83335L29.7115 0.35462L10.4075 0.364145L9.78797 2.84005C10.7078 3.06935 13.3418 3.57187 12.4249 7.00996C5.98306 30.1133 6.72967 27.8143 6.29476 29.0827C4.53215 35.7546 1.69629 35.4156 0.665711 35.4851L0 38.1593H20.186L20.867 35.4521C20.867 35.4521 17.6588 34.8131 18.2737 32.5254C18.8798 30.259 21.4145 21.1659 21.4145 21.1659C24.9077 26.7412 25.7269 27.4272 29.9381 33.1801C34.1519 38.9332 38.6615 38.1723 50.5986 38.176L51.2617 35.5131C48.7139 35.5253 47.0364 33.6828 46.0144 32.5986" fill="white"/>
</svg>
