<svg width="194" height="195" viewBox="0 0 194 195" fill="none" xmlns="http://www.w3.org/2000/svg">
<circle cx="97" cy="97.7023" r="97" fill="white"/>
<circle cx="97.5" cy="98.2023" r="88.5" fill="white" stroke="#DADADA" stroke-width="2" stroke-linecap="square" stroke-linejoin="round" stroke-dasharray="12 12"/>
<path d="M36.1378 72.7023H38.9055V68.0616H40.9254L43.4055 72.7023H46.4609L43.6804 67.6142C45.1697 66.975 45.9943 65.6774 45.9943 63.8876C45.9943 61.2861 44.2749 59.6114 41.3026 59.6114H36.1378V72.7023ZM38.9055 65.8372V61.8741H40.772C42.37 61.8741 43.1435 62.5837 43.1435 63.8876C43.1435 65.1852 42.37 65.8372 40.7848 65.8372H38.9055ZM47.9503 72.7023H50.718V68.458H53.0447C56.0554 68.458 57.8068 66.6618 57.8068 64.0474C57.8068 61.4459 56.0874 59.6114 53.1151 59.6114H47.9503V72.7023ZM50.718 66.2399V61.8741H52.5845C54.1825 61.8741 54.956 62.7435 54.956 64.0474C54.956 65.345 54.1825 66.2399 52.5973 66.2399H50.718Z" fill="#F73D27"/>
<path d="M35.4091 131.702H46.9773L65.8182 94.2932V85.1568H32.2273V94.225H54.1818V94.5205L35.4091 131.702ZM88.892 84.5205C78.1648 84.4977 70.8239 91.225 70.8693 100.861C70.892 109.43 76.733 115.657 85.0739 115.657C90.2784 115.657 94.9602 113.157 96.892 108.975H97.1648C97.142 117.452 94.3466 122.748 88.6648 122.748C85.5284 122.748 83.1193 121.202 82.4375 118.089H71.3693C72.2102 126.111 78.8466 132.339 88.6648 132.339C100.528 132.339 108.301 122.998 108.256 107.475C108.233 90.6568 99.0966 84.5432 88.892 84.5205ZM88.9602 93.1568C93.0739 93.1568 96.0966 96.4068 96.142 100.475C96.1648 104.566 93.0057 107.839 88.9148 107.839C84.7557 107.839 81.8011 104.657 81.7784 100.498C81.733 96.3614 84.8011 93.1568 88.9602 93.1568ZM118.773 132.361C121.886 132.361 124.636 129.725 124.682 126.452C124.636 123.225 121.886 120.611 118.773 120.611C115.5 120.611 112.818 123.225 112.864 126.452C112.818 129.725 115.5 132.361 118.773 132.361ZM136.358 114.009C132.335 114.001 129.582 116.523 129.599 120.137C129.608 123.35 131.798 125.685 134.926 125.685C136.878 125.685 138.634 124.748 139.358 123.18H139.46C139.452 126.359 138.403 128.344 136.273 128.344C135.097 128.344 134.193 127.765 133.938 126.597H129.787C130.102 129.606 132.591 131.941 136.273 131.941C140.722 131.941 143.636 128.438 143.619 122.617C143.611 116.31 140.185 114.018 136.358 114.009ZM136.384 117.248C137.926 117.248 139.06 118.466 139.077 119.992C139.085 121.526 137.901 122.753 136.366 122.753C134.807 122.753 133.699 121.56 133.69 120.001C133.673 118.449 134.824 117.248 136.384 117.248ZM152.506 114.009C148.484 114.001 145.731 116.523 145.748 120.137C145.756 123.35 147.947 125.685 151.075 125.685C153.026 125.685 154.782 124.748 155.506 123.18H155.609C155.6 126.359 154.552 128.344 152.421 128.344C151.245 128.344 150.342 127.765 150.086 126.597H145.935C146.251 129.606 148.739 131.941 152.421 131.941C156.87 131.941 159.785 128.438 159.768 122.617C159.759 116.31 156.333 114.018 152.506 114.009ZM152.532 117.248C154.075 117.248 155.208 118.466 155.225 119.992C155.234 121.526 154.049 122.753 152.515 122.753C150.955 122.753 149.847 121.56 149.839 120.001C149.822 118.449 150.972 117.248 152.532 117.248ZM168.655 114.009C164.632 114.001 161.879 116.523 161.896 120.137C161.905 123.35 164.095 125.685 167.223 125.685C169.175 125.685 170.93 124.748 171.655 123.18H171.757C171.749 126.359 170.7 128.344 168.57 128.344C167.393 128.344 166.49 127.765 166.234 126.597H162.084C162.399 129.606 164.888 131.941 168.57 131.941C173.018 131.941 175.933 128.438 175.916 122.617C175.908 116.31 172.482 114.018 168.655 114.009ZM168.68 117.248C170.223 117.248 171.357 118.466 171.374 119.992C171.382 121.526 170.197 122.753 168.663 122.753C167.104 122.753 165.996 121.56 165.987 120.001C165.97 118.449 167.121 117.248 168.68 117.248Z" fill="#F73D27"/>
</svg>
