<svg width="42" height="42" viewBox="0 0 42 42" fill="none" xmlns="http://www.w3.org/2000/svg">
<path d="M41.25 30.945V38.901C41.2503 39.4706 41.0344 40.0192 40.6461 40.4359C40.2577 40.8527 39.7257 41.1066 39.1575 41.1465C38.1742 41.214 37.371 41.25 36.75 41.25C16.8668 41.25 0.75 25.1333 0.75 5.25C0.75 4.629 0.78375 3.82575 0.8535 2.8425C0.893375 2.27425 1.14731 1.74227 1.56406 1.35392C1.98081 0.965565 2.52935 0.749743 3.099 0.750001H11.055C11.3341 0.749718 11.6033 0.853183 11.8104 1.0403C12.0175 1.22741 12.1476 1.48481 12.1755 1.7625C12.2273 2.28 12.2745 2.69175 12.3195 3.0045C12.7667 6.12508 13.683 9.16012 15.0375 12.0068C15.2513 12.4568 15.1118 12.9945 14.7067 13.2825L9.85125 16.752C12.82 23.6695 18.3327 29.1822 25.2502 32.151L28.7153 27.3045C28.8569 27.1065 29.0635 26.9645 29.2991 26.9032C29.5347 26.842 29.7844 26.8653 30.0045 26.9692C32.8508 28.3212 35.8851 29.2353 39.0045 29.6805C39.3173 29.7255 39.729 29.775 40.242 29.8245C40.5193 29.8529 40.7761 29.9833 40.9628 30.1903C41.1494 30.3973 41.2526 30.6663 41.2523 30.945H41.25Z" fill="white"/>
</svg>
