<svg width="35" height="29" viewBox="0 0 35 29" fill="none" xmlns="http://www.w3.org/2000/svg">
<path d="M34.8601 3.66233C33.5559 4.23922 32.1729 4.6181 30.7567 4.78641C32.2494 3.8937 33.3666 2.48873 33.9001 0.83333C32.4992 1.667 30.9634 2.25125 29.3627 2.56729C28.2875 1.41686 26.8623 0.653892 25.3088 0.396996C23.7552 0.140099 22.1603 0.403669 20.772 1.14673C19.3837 1.88979 18.2797 3.07071 17.6318 4.50589C16.9839 5.94108 16.8283 7.55012 17.1891 9.08287C14.3484 8.94049 11.5693 8.20227 9.03234 6.91613C6.49539 5.63 4.25728 3.8247 2.46331 1.61746C1.82831 2.70814 1.49461 3.94801 1.49639 5.21008C1.49639 7.68716 2.75714 9.87554 4.67389 11.1568C3.53957 11.1211 2.43022 10.8147 1.43831 10.2633V10.3522C1.43865 12.0019 2.00952 13.6008 3.05413 14.8776C4.09874 16.1545 5.5528 17.0309 7.16977 17.358C6.11678 17.6434 5.01267 17.6855 3.94102 17.481C4.39692 18.9011 5.28549 20.143 6.48232 21.0329C7.67915 21.9227 9.12432 22.4161 10.6155 22.4438C9.13346 23.6077 7.43657 24.4681 5.62181 24.9758C3.80706 25.4835 1.91003 25.6285 0.0391846 25.4026C3.305 27.5029 7.10672 28.6179 10.9896 28.6142C24.1318 28.6142 31.3188 17.727 31.3188 8.28508C31.3188 7.97758 31.3102 7.66666 31.2966 7.36258C32.6955 6.35153 33.9028 5.09907 34.8619 3.66404L34.8601 3.66233Z" fill="white"/>
</svg>
