<svg width="46" height="46" viewBox="0 0 46 46" fill="none" xmlns="http://www.w3.org/2000/svg">
<path d="M0.50903 45.5L3.55103 34.322C1.54659 30.8859 0.493496 26.978 0.50003 23C0.50003 10.5733 10.5733 0.5 23 0.5C35.4268 0.5 45.5 10.5733 45.5 23C45.5 35.4268 35.4268 45.5 23 45.5C19.0238 45.5064 15.1175 44.4541 11.6825 42.4513L0.50903 45.5ZM14.8798 12.443C14.5892 12.461 14.3053 12.5376 14.045 12.668C13.801 12.8062 13.5781 12.979 13.3835 13.181C13.1135 13.4353 12.9605 13.6558 12.7963 13.8695C11.9647 14.9517 11.5174 16.2802 11.525 17.645C11.5295 18.7475 11.8175 19.8207 12.2675 20.8242C13.1878 22.8538 14.702 25.0025 16.7023 26.9937C17.1838 27.473 17.654 27.9545 18.1603 28.4023C20.6429 30.588 23.6013 32.1643 26.8003 33.0058L28.0805 33.2015C28.4968 33.224 28.913 33.1925 29.3315 33.1722C29.9868 33.1384 30.6267 32.961 31.2058 32.6525C31.5793 32.4545 31.7548 32.3555 32.0675 32.1575C32.0675 32.1575 32.1643 32.0945 32.3488 31.955C32.6525 31.73 32.8393 31.5703 33.0913 31.307C33.278 31.1135 33.44 30.8863 33.5638 30.6275C33.7393 30.2607 33.9148 29.561 33.9868 28.9782C34.0408 28.5327 34.025 28.2898 34.0183 28.139C34.0093 27.8983 33.809 27.6485 33.5908 27.5427L32.2813 26.9555C32.2813 26.9555 30.3238 26.1028 29.129 25.5583C29.0031 25.5033 28.8681 25.4721 28.7308 25.466C28.5768 25.4502 28.4213 25.4675 28.2746 25.5168C28.1279 25.5661 27.9934 25.6462 27.8803 25.7517V25.7472C27.869 25.7472 27.7183 25.8755 26.0915 27.8465C25.9982 27.972 25.8695 28.0668 25.7221 28.1189C25.5746 28.171 25.415 28.178 25.2635 28.139C25.1169 28.0998 24.9733 28.0502 24.8338 27.9905C24.5548 27.8735 24.458 27.8285 24.2668 27.7453L24.2555 27.7408C22.9683 27.1788 21.7765 26.4197 20.723 25.4908C20.4395 25.2432 20.1763 24.9732 19.9063 24.7122C19.0211 23.8645 18.2496 22.9055 17.6113 21.8592L17.4785 21.6455C17.3832 21.5019 17.3061 21.3469 17.249 21.1842C17.1635 20.8535 17.3863 20.588 17.3863 20.588C17.3863 20.588 17.933 19.9895 18.1873 19.6655C18.399 19.3962 18.5965 19.1161 18.779 18.8263C19.0445 18.3988 19.1278 17.96 18.9883 17.6203C18.3583 16.0813 17.7058 14.549 17.0353 13.028C16.9025 12.7265 16.5088 12.5105 16.151 12.4677C16.0295 12.4542 15.908 12.4408 15.7865 12.4318C15.4844 12.4167 15.1816 12.4197 14.8798 12.4408V12.443Z" fill="white"/>
</svg>
